ffmpeg started on 2023-03-01 at 21:20:03
Report written to "D:/java/GitHub/pornMagnetSpringBoot/jiuse911Modeul/Logs/2023-03-01_21-18-29-424_ffreport.log"
Command line:
"D:\\java\\GitHub\\pornMagnetSpringBoot\\ffmpeg.exe" -loglevel warning -i "concat:00.ts|01.ts|02.ts|03.ts|04.ts|05.ts|06.ts|07.ts|08.ts|09.ts|10.ts|11.ts|12.ts|13.ts|14.ts|15.ts|16.ts|17.ts|18.ts|19.ts|20.ts|21.ts|22.ts|23.ts|24.ts|25.ts|26.ts|27.ts|28.ts|29.ts|30.ts|31.ts|32.ts|33.ts|34.ts|35.ts|36.ts|37.ts|38.ts|39.ts|40.ts|41.ts|42.ts|43.ts|44.ts|45.ts|46.ts|47.ts|48.ts|49.ts|50.ts|51.ts|52.ts|53.ts|54.ts|55.ts|56.ts|57.ts|58.ts|59.ts|60.ts|61.ts|62.ts|63.ts|64.ts|65.ts|66.ts|67.ts|68.ts|69.ts|70.ts|71.ts|72.ts|73.ts|74.ts|" -map "0:v?" -map "0:a?" -map "0:s?" -metadata "date=2023-03-01T21:20:03.7042618+08:00" -metadata "encoding_tool=" -metadata "title=" -metadata "copyright=" -metadata "comment=" -metadata:s:a:0 "handler_name=" -metadata:s:a:0 "handler=" -c copy -y -bsf:a aac_adtstoasc "D:\\java\\GitHub\\pornMagnetSpringBoot\\Downloads\\\xd0\xec\xc0\xcf\xca\xa6\xb8\xd5\xcf\xc2\xc1\xcb\xce\xe8\xb5\xb8\xbf\xce\xbe\xcd\xc0\xb4\xb0\xa4\xb2\xd9\xa3\xa8\xcf\xc2\xc3\xe6\xd3\xd0\xcb\xfd\xcd\xea\xd5\xfb\xca\xd3\xc6\xb5\xba\xcd\xc1\xaa\xcf\xb5\xb7\xbd\xca\xbd\xa3\xa9.mp4"
ffmpeg version N-94813-g85386c36e3-ffmpeg-for-N_m3u8DL-CLI Copyright (c) 2000-2019 the FFmpeg developers
  built with gcc 8.2.0 (GCC)
  libavutil      56. 35.100 / 56. 35.100
  libavcodec     58. 56.101 / 58. 56.101
  libavformat    58. 32.104 / 58. 32.104
  libavfilter     7. 58.102 /  7. 58.102
  libavresample   4.  0.  0 /  4.  0.  0
  libswresample   3.  6.100 /  3.  6.100
Input #0, mpegts, from 'concat:00.ts|01.ts|02.ts|03.ts|04.ts|05.ts|06.ts|07.ts|08.ts|09.ts|10.ts|11.ts|12.ts|13.ts|14.ts|15.ts|16.ts|17.ts|18.ts|19.ts|20.ts|21.ts|22.ts|23.ts|24.ts|25.ts|26.ts|27.ts|28.ts|29.ts|30.ts|31.ts|32.ts|33.ts|34.ts|35.ts|36.ts|37.ts|38.ts|39.ts|40.ts|41.ts|42.ts|43.ts|44.ts|45.ts|46.ts|47.ts|48.ts|49.ts|50.ts|51.ts|52.ts|53.ts|54.ts|55.ts|56.ts|57.ts|58.ts|59.ts|60.ts|61.ts|62.ts|63.ts|64.ts|65.ts|66.ts|67.ts|68.ts|69.ts|70.ts|71.ts|72.ts|73.ts|74.ts|':
  Duration: 00:12:25.00, start: 1.443511, bitrate: 506 kb/s
  Program 1 
    Metadata:
      service_name    : Service01
      service_provider: FFmpeg
    Stream #0:0[0x100]: Video: h264 ([27][0][0][0] / 0x001B), yuv420p(progressive), 600x336 [SAR 224:225 DAR 16:9], 29.97 fps, 29.97 tbr, 90k tbn, 59.94 tbc
    Stream #0:1[0x101](und): Audio: aac ([15][0][0][0] / 0x000F), 44100 Hz, stereo, fltp, 5 kb/s
Output #0, mp4, to 'D:\java\GitHub\pornMagnetSpringBoot\Downloads\徐老师刚下了舞蹈课就来挨操（下面有她完整视频和联系方式）.mp4':
  Metadata:
    date            : 2023-03-01T21:20:03.7042618+08:00
    encoder         : Lavf58.32.104
    Stream #0:0: Video: h264 (avc1 / 0x31637661), yuv420p(progressive), 600x336 [SAR 224:225 DAR 16:9], q=2-31, 29.97 fps, 29.97 tbr, 90k tbn, 90k tbc
    Stream #0:1(und): Audio: aac (mp4a / 0x6134706D), 44100 Hz, stereo, fltp, 5 kb/s
Stream mapping:
  Stream #0:0 -> #0:0 (copy)
  Stream #0:1 -> #0:1 (copy)
Press [q] to stop, [?] for help
frame=22327 fps=0.0 q=-1.0 Lsize=   42632kB time=00:12:24.90 bitrate= 468.8kbits/s speed=2.56e+03x    
video:30266kB audio:11570kB subtitle:0kB other streams:0kB global headers:0kB muxing overhead: 1.904734%
